# xmcd
#
# Track frame offsets: 
#        182
#        11282
#        21557
#        34607
#        44132
#        56207
#        68732
#        79082
#        89957
#        100532
#        110882
#        122132
#        132557
#        145307
#        156707
#        169082
#        181682
#        191732
#        201032
#        211232
#        222857
#        231407
#        239207
#        251507
#
# Disc length: 3474 seconds
#
# Revision: 2
# Processed by: cddbd v1.4PL0 Copyright (c) Steve Scherf et al.
# Submitted via: ExactAudioCopy v0.90b3
#
DISCID=750d9018
DTITLE=Johnny Cash - Up Through The Years, 1955-1957
DYEAR=1986
DGENRE=
TTITLE0=Cry Cry Cry
TTITLE1=Hey Porter
TTITLE2=Folsom Prison Blues
TTITLE3=Luther Played The Boogie
TTITLE4=So Doggone Lonesome
TTITLE5=I Walk The Line
TTITLE6=Get Rhythm
TTITLE7=Train Of Love
TTITLE8=There You Go
TTITLE9=Goodbye Little Darling Goodbye
TTITLE10=I Love You Because
TTITLE11=Straight A's In Love
TTITLE12=Next In Line
TTITLE13=Don't Make Me Go
TTITLE14=Home Of The Blues
TTITLE15=Give My Love To Rose
TTITLE16=Rock Island Line
TTITLE17=Wreck Of The Old '97
TTITLE18=Ballad Of A Teenage Queen
TTITLE19=Big River
TTITLE20=I Guess Things Happen That Way
TTITLE21=Come In Stranger
TTITLE22=You're The Nearest Thing To Heaven
TTITLE23=Blue Train
EXTD=
EXTT0=
EXTT1=
EXTT2=
EXTT3=
EXTT4=
EXTT5=
EXTT6=
EXTT7=
EXTT8=
EXTT9=
EXTT10=
EXTT11=
EXTT12=
EXTT13=
EXTT14=
EXTT15=
EXTT16=
EXTT17=
EXTT18=
EXTT19=
EXTT20=
EXTT21=
EXTT22=
EXTT23=
PLAYORDER=
